<svg xmlns="http://www.w3.org/2000/svg" version="1.1" xmlns:xlink="http://www.w3.org/1999/xlink" xmlns:svgjs="http://svgjs.com/svgjs" width="408.2" height="191.3"><svg xmlns="http://www.w3.org/2000/svg" version="1.1" xmlns:xlink="http://www.w3.org/1999/xlink" viewBox="0 0 408.2 191.3">
  <defs>
    <style>
      .cls-1 {
        fill: none;
      }

      .cls-2 {
        fill: #aa3700;
      }

      .cls-3 {
        fill: url(#Gradient_bez_nazwy);
        stroke: url(#Gradient_bez_nazwy_18);
      }

      .cls-3, .cls-4 {
        stroke-miterlimit: 10;
        stroke-width: 4px;
      }

      .cls-5 {
        fill: #915eff;
      }

      .cls-4 {
        fill: url(#Gradient_bez_nazwy_5);
        stroke: url(#Gradient_bez_nazwy_6);
      }
    </style>
    <linearGradient id="SvgjsLinearGradient1005" data-name="Gradient bez nazwy" x1="310.4" y1="612.7" x2="342.9" y2="612.7" gradientTransform="translate(0 -574)" gradientUnits="userSpaceOnUse">
      <stop offset="0" stop-color="#fff"></stop>
      <stop offset="1" stop-color="#000"></stop>
    </linearGradient>
    <linearGradient id="SvgjsLinearGradient1004" data-name="Gradient bez nazwy 18" x1="310.4" y1="612.7" x2="342.9" y2="612.7" gradientTransform="translate(0 -574)" gradientUnits="userSpaceOnUse">
      <stop offset="0" stop-color="#fff"></stop>
      <stop offset="0" stop-color="#f7f7f7"></stop>
      <stop offset="0" stop-color="#c3c3c3"></stop>
      <stop offset=".2" stop-color="#959595"></stop>
      <stop offset=".3" stop-color="#6d6d6d"></stop>
      <stop offset=".4" stop-color="#4b4b4b"></stop>
      <stop offset=".5" stop-color="#2f2f2f"></stop>
      <stop offset=".6" stop-color="#1a1a1a"></stop>
      <stop offset=".7" stop-color="#0b0b0b"></stop>
      <stop offset=".8" stop-color="#020202"></stop>
      <stop offset="1" stop-color="#000"></stop>
    </linearGradient>
    <linearGradient id="SvgjsLinearGradient1003" data-name="Gradient bez nazwy 5" x1="300.1" y1="634.4" x2="342.9" y2="634.4" gradientTransform="translate(0 -574)" gradientUnits="userSpaceOnUse">
      <stop offset="0" stop-color="#fff"></stop>
      <stop offset="1" stop-color="#000"></stop>
    </linearGradient>
    <linearGradient id="SvgjsLinearGradient1002" data-name="Gradient bez nazwy 6" x1="300.1" y1="634.4" x2="342.9" y2="634.4" gradientTransform="translate(0 -574)" gradientUnits="userSpaceOnUse">
      <stop offset="0" stop-color="#fff"></stop>
      <stop offset="1" stop-color="#000"></stop>
    </linearGradient>
  </defs>
  <!-- Generator: Adobe Illustrator 28.6.0, SVG Export Plug-In . SVG Version: 1.2.0 Build 709)  -->
  <g>
    <g id="SvgjsG1001">
      <g id="SvgjsG1000" data-name="Warstwa_1">
        <path class="cls-2" d="M327.9,44.5h-2.7v-1.9h7.7v1.9h-2.7v11.7h-2.3v-11.7h0Z"></path>
        <path class="cls-5" d="M220.7,49.7c-1.2-.9-2.2-2.2-2.2-3.9v-.7c0-2.3,1.2-3.9,3.9-3.9s4,1.7,4,3.9v1h-1.8v-1c0-1.3-.5-2.3-2.1-2.3s-2.1.9-2.1,2.3v.4c0,1.3.6,2,1.6,2.6l2.4,1.7c1.3.9,2.2,2.1,2.2,3.6v.8c0,2.3-1.4,3.9-4.1,3.9s-4-1.7-4-3.9v-1.2h1.8v1.1c0,1.4.6,2.3,2.2,2.3s2.2-.9,2.2-2.3v-.3c0-1.3-.5-1.9-1.5-2.6l-2.4-1.7h0v.2Z"></path>
        <path class="cls-5" d="M236.2,51.9h-5.9v2.7c0,1.2.6,2,2.1,2s2.1-.7,2.1-2v-.9h1.8v.8c0,2.2-1.3,3.7-3.8,3.7s-3.9-1.5-3.9-3.7v-6.3c0-2.2,1.3-3.7,3.9-3.7s3.8,1.5,3.8,3.7v3.6h-.1ZM230.4,50.5h4.1v-2.2c0-1.2-.6-2-2.1-2s-2.1.7-2.1,2v2.2h.1Z"></path>
        <path class="cls-5" d="M241.8,58.2c-2.2,0-3.3-1.2-3.3-3.1v-.6c0-1.6.9-2.6,2.7-3.2l3.3-1v-2c0-1.2-.6-1.9-2.1-1.9s-2,.6-2,1.9v.7h-1.8v-.7c0-2.2,1.2-3.5,3.8-3.5s3.8,1.4,3.8,3.5v9.9h-1.8v-1.4c-.3.7-1.1,1.6-2.7,1.6h.1ZM242.1,56.7c1.7,0,2.3-.9,2.3-2v-2.9l-2.6.7c-1.2.4-1.7.9-1.7,1.8v.6c0,1.1.6,1.7,1.9,1.7h.1Z"></path>
        <path class="cls-5" d="M253.9,46.6h-.9c-1.1,0-2,.8-2,2.2v9.3h-1.8v-13.2h1.7v1.7c.2-.7.9-1.7,2.5-1.7s.3,0,.5,0v1.8h0Z"></path>
        <path class="cls-5" d="M261.1,54.6v-.9h1.8v.9c0,2.2-1.3,3.7-3.8,3.7s-3.8-1.5-3.8-3.7v-6.2c0-2.2,1.3-3.7,3.8-3.7s3.8,1.5,3.8,3.7v1h-1.8v-1c0-1.2-.5-2-2-2s-2,.8-2,2v6.2c0,1.2.6,2,2,2s2-.8,2-2Z"></path>
        <path class="cls-5" d="M265.6,58.1v-16.8h1.8v4.9c.2-.5.9-1.4,2.6-1.4s3.1,1.3,3.1,3.4v10.1h-1.8v-9.8c0-1.3-.6-2-1.9-2s-2.1.7-2.1,1.9v9.9h-1.8,0Z"></path>
        <rect class="cls-5" x="280.2" y="43.7" width="3.5" height="2.4"></rect>
        <path class="cls-2" d="M318.1,56.3v-13.6h2.3v13.6s-2.3,0-2.3,0Z"></path>
        <path class="cls-1" d="M310,40.5h27.4"></path>
        <path class="cls-1" d="M297.8,40.6h2"></path>
        <path class="cls-1" d="M239.8,40.6c18.4,0,36.8,0,55.1,0"></path>
        <path class="cls-5" d="M217.1,65.7l-4,3.8-24.8-19.3,24.8-19.3,4,3.8-20.1,15.4,20.1,15.6h0Z"></path>
        <path class="cls-5" d="M360.7,49.6l-20.1-15.4,4-3.8,24.8,19.3-24.8,19.3-4-3.8,20.1-15.6h0Z"></path>
        <rect class="cls-5" x="280.2" y="54.9" width="3.5" height="2.4"></rect>
        <path class="cls-5" d="M312,23.6l-22.5,49.8h-5.4l22.5-49.8s5.4,0,5.4,0Z"></path>
        <path class="cls-3" d="M310.4,38.7h32.5"></path>
        <path class="cls-4" d="M300.1,60.4h42.7"></path>
      </g>
    </g>
  </g>
</svg><style>@media (prefers-color-scheme: light) { :root { filter: none; } }
</style></svg>