<svg version="1.2" xmlns="http://www.w3.org/2000/svg" viewBox="0 0 320 150" width="150" height="70">
	<title>logo3-svg</title>
	<defs>
		<linearGradient id="g1" x2="1" gradientUnits="userSpaceOnUse" gradientTransform="matrix(0,0,0,0,NaN,NaN)">
			<stop offset="0" stop-color="#ffffff"/>
			<stop offset="1" stop-color="#000000"/>
		</linearGradient>
		<linearGradient id="g2" x2="1" gradientUnits="userSpaceOnUse" gradientTransform="matrix(0,0,0,0,NaN,NaN)">
			<stop offset="0" stop-color="#c3c3c3"/>
			<stop offset=".2" stop-color="#959595"/>
			<stop offset=".3" stop-color="#6d6d6d"/>
			<stop offset=".4" stop-color="#4b4b4b"/>
			<stop offset=".5" stop-color="#2f2f2f"/>
			<stop offset=".6" stop-color="#1a1a1a"/>
			<stop offset=".7" stop-color="#0b0b0b"/>
			<stop offset=".8" stop-color="#020202"/>
			<stop offset="1" stop-color="#000000"/>
		</linearGradient>
		<linearGradient id="g3" x2="1" gradientUnits="userSpaceOnUse" gradientTransform="matrix(0,0,0,0,NaN,NaN)">
			<stop offset="0" stop-color="#ffffff"/>
			<stop offset="1" stop-color="#000000"/>
		</linearGradient>
		<linearGradient id="g4" x2="1" gradientUnits="userSpaceOnUse" gradientTransform="matrix(0,0,0,0,NaN,NaN)">
			<stop offset="0" stop-color="#ffffff"/>
			<stop offset="1" stop-color="#000000"/>
		</linearGradient>
	</defs>
	<style>
		.s0 { fill: #aa3700 } 
		.s1 { fill: #915eff } 
		.s2 { fill: none } 
		.s3 { fill: url(#g1);stroke: url(#g2);stroke-miterlimit:10;stroke-width: 3.1 } 
		.s4 { fill: url(#g3);stroke: url(#g4);stroke-miterlimit:10;stroke-width: 3.1 } 
	</style>
	<g>
		<g id="Warstwa_1">
			<g id="Warstwa_1-2">
				<path class="s0" d="m256.5 34.8h-2.1v-1.5h6.1v1.5h-2.2v9.1h-1.8z"/>
				<path class="s1" d="m172.7 38.8c-1-0.7-1.7-1.7-1.7-3v-0.6c0-1.8 0.9-3 3-3 2.1 0 3.1 1.3 3.1 3v0.8h-1.4v-0.8c0-1-0.4-1.8-1.6-1.8-1.3 0-1.7 0.7-1.7 1.8v0.3c0 1.1 0.5 1.6 1.3 2.1l1.9 1.3c1 0.7 1.7 1.6 1.7 2.8v0.6c0 1.8-1.1 3.1-3.2 3.1-2.1 0-3.1-1.3-3.1-3.1v-0.9h1.4v0.9c0 1.1 0.4 1.8 1.7 1.8 1.2 0 1.7-0.7 1.7-1.8v-0.3c0-1-0.4-1.5-1.2-2l-1.8-1.3v0.1z"/>
				<path fill-rule="evenodd" class="s1" d="m184.8 40.5h-4.6v2.2c0 0.9 0.5 1.5 1.6 1.5 1.2 0 1.7-0.5 1.7-1.5v-0.7h1.4v0.6c0 1.7-1 2.9-3 2.9-1.9 0-3-1.2-3-2.9v-4.9c0-1.8 1-2.9 3-2.9 2 0 3 1.1 3 2.9v2.8h-0.1zm-1.3-1.1v-1.7c0-1-0.5-1.6-1.7-1.6-1.1 0-1.6 0.5-1.6 1.6v1.7z"/>
				<path fill-rule="evenodd" class="s1" d="m189.2 45.5c-1.7 0-2.6-1-2.6-2.5v-0.4c0-1.3 0.7-2.1 2.1-2.5l2.6-0.8v-1.6c0-0.9-0.5-1.4-1.6-1.4-1.2 0-1.6 0.4-1.6 1.4v0.6h-1.4v-0.6c0-1.7 0.9-2.7 3-2.7 2 0 2.9 1.1 2.9 2.7v7.8h-1.4v-1.1c-0.2 0.5-0.8 1.2-2 1.2zm0 0.2h-0.1q0 0 0.1 0zm0.2-1.3c1.3 0 1.8-0.8 1.8-1.6v-2.3l-2 0.6c-1 0.3-1.3 0.7-1.3 1.4v0.4c0 0.9 0.4 1.4 1.4 1.4h0.1z"/>
				<path class="s1" d="m198.7 36.4h-0.8c-0.8 0-1.5 0.6-1.5 1.7v7.3h-1.4v-10.3h1.3v1.3c0.2-0.5 0.7-1.3 2-1.3 1.2 0 0.2 0 0.4 0v1.4z"/>
				<path class="s1" d="m204.3 42.7v-0.7h1.4v0.7c0 1.7-1 2.8-3 2.8-1.9 0-3-1.1-3-2.8v-4.9c0-1.7 1.1-2.9 3-2.9 2 0 3 1.2 3 2.9v0.8h-1.4v-0.8c0-0.9-0.4-1.6-1.6-1.6-1.2 0-1.5 0.7-1.5 1.6v4.9c0 0.9 0.4 1.5 1.5 1.5 1.1 0 1.6-0.6 1.6-1.5z"/>
				<path class="s1" d="m207.8 45.4v-13.1h1.4v3.8c0.2-0.4 0.7-1.1 2-1.1 1.4 0 2.5 1 2.5 2.7v7.8h-1.4v-7.6c0-1-0.5-1.6-1.5-1.6-1 0-1.7 0.6-1.7 1.5v7.7h-1.4z"/>
				<path class="s1" d="m222 34.1v1.9h-2.8v-1.9z"/>
				<path class="s0" d="m250.7 33.4v10.6h-1.8v-10.6z"/>
				<path fill-rule="evenodd" class="s2" d="m242.5 31.6h21.5"/>
				<path fill-rule="evenodd" class="s2" d="m233 31.7h1.6"/>
				<path fill-rule="evenodd" class="s2" d="m187.6 31.7c14.4 0 28.8 0 43.1 0"/>
				<path class="s1" d="m169.9 51.3l-3.2 3-19.4-15.1 19.4-15.1 3.2 3-15.8 12z"/>
				<path class="s1" d="m282.2 38.8l-15.7-12.1 3.1-2.9 19.4 15-19.4 15.1-3.1-3z"/>
				<path class="s1" d="m222 42.9v1.9h-2.8v-1.9z"/>
				<path class="s1" d="m244.1 18.4l-17.6 38.9h-4.2l17.6-38.9z"/>
				<path class="s3" d="m242.9 30.2h25.4"/>
				<path class="s4" d="m234.8 47.2h33.4"/>
			</g>
		</g>
	</g>
</svg>