<?xml version="1.0" encoding="UTF-8"?>
<svg xmlns="http://www.w3.org/2000/svg" version="1.1" xmlns:xlink="http://www.w3.org/1999/xlink" viewBox="0 0 408.2 191.3">
  <defs>
    <style>
      .cls-1 {
        fill: url(#Gradient_bez_nazwy_7);
        stroke: url(#Gradient_bez_nazwy_24);
      }

      .cls-1, .cls-2, .cls-3, .cls-4 {
        stroke-miterlimit: 10;
        stroke-width: 4px;
      }

      .cls-5 {
        fill: none;
      }

      .cls-2 {
        fill: url(#Gradient_bez_nazwy_3);
        stroke: url(#Gradient_bez_nazwy_20);
      }

      .cls-6 {
        fill: #aa3700;
      }

      .cls-3 {
        fill: url(#Gradient_bez_nazwy);
        stroke: url(#Gradient_bez_nazwy_18);
      }

      .cls-7 {
        fill: #915eff;
      }

      .cls-4 {
        fill: url(#Gradient_bez_nazwy_5);
        stroke: url(#Gradient_bez_nazwy_6);
      }
    </style>
    <linearGradient id="Gradient_bez_nazwy" data-name="Gradient bez nazwy" x1="310.4" y1="612.7" x2="342.9" y2="612.7" gradientTransform="translate(0 -574)" gradientUnits="userSpaceOnUse">
      <stop offset="0" stop-color="#fff"/>
      <stop offset="1" stop-color="#000"/>
    </linearGradient>
    <linearGradient id="Gradient_bez_nazwy_18" data-name="Gradient bez nazwy 18" x1="310.4" y1="612.7" x2="342.9" y2="612.7" gradientTransform="translate(0 -574)" gradientUnits="userSpaceOnUse">
      <stop offset="0" stop-color="#fff"/>
      <stop offset="0" stop-color="#f7f7f7"/>
      <stop offset="0" stop-color="#c3c3c3"/>
      <stop offset=".2" stop-color="#959595"/>
      <stop offset=".3" stop-color="#6d6d6d"/>
      <stop offset=".4" stop-color="#4b4b4b"/>
      <stop offset=".5" stop-color="#2f2f2f"/>
      <stop offset=".6" stop-color="#1a1a1a"/>
      <stop offset=".7" stop-color="#0b0b0b"/>
      <stop offset=".8" stop-color="#020202"/>
      <stop offset="1" stop-color="#000"/>
    </linearGradient>
    <linearGradient id="Gradient_bez_nazwy_3" data-name="Gradient bez nazwy 3" x1="215.2" y1="612.7" x2="294.6" y2="612.7" gradientTransform="translate(0 -574)" gradientUnits="userSpaceOnUse">
      <stop offset="0" stop-color="#fff"/>
      <stop offset="0" stop-color="#d34f29"/>
      <stop offset="1" stop-color="#fff"/>
      <stop offset="1" stop-color="#fefaf9"/>
    </linearGradient>
    <linearGradient id="Gradient_bez_nazwy_20" data-name="Gradient bez nazwy 20" x1="215.2" y1="612.7" x2="294.6" y2="612.7" gradientTransform="translate(0 -574)" gradientUnits="userSpaceOnUse">
      <stop offset="0" stop-color="#fff"/>
      <stop offset="0" stop-color="#909090"/>
      <stop offset="0" stop-color="#a0a0a0"/>
      <stop offset=".2" stop-color="#c2c2c2"/>
      <stop offset=".4" stop-color="#dcdcdc"/>
      <stop offset=".6" stop-color="#efefef"/>
      <stop offset=".8" stop-color="#fbfbfb"/>
      <stop offset="1" stop-color="#fff"/>
      <stop offset="1" stop-color="#fefaf9"/>
    </linearGradient>
    <linearGradient id="Gradient_bez_nazwy_5" data-name="Gradient bez nazwy 5" x1="300.1" y1="634.4" x2="342.9" y2="634.4" gradientTransform="translate(0 -574)" gradientUnits="userSpaceOnUse">
      <stop offset="0" stop-color="#fff"/>
      <stop offset="1" stop-color="#000"/>
    </linearGradient>
    <linearGradient id="Gradient_bez_nazwy_6" data-name="Gradient bez nazwy 6" x1="300.1" y1="634.4" x2="342.9" y2="634.4" gradientTransform="translate(0 -574)" gradientUnits="userSpaceOnUse">
      <stop offset="0" stop-color="#fff"/>
      <stop offset="1" stop-color="#000"/>
    </linearGradient>
    <linearGradient id="Gradient_bez_nazwy_7" data-name="Gradient bez nazwy 7" x1="215.2" y1="634.5" x2="283" y2="634.5" gradientTransform="translate(0 -574)" gradientUnits="userSpaceOnUse">
      <stop offset="0" stop-color="#d34f29"/>
      <stop offset="0" stop-color="#fff"/>
      <stop offset="1" stop-color="#fff"/>
      <stop offset="1" stop-color="#fefaf9"/>
    </linearGradient>
    <linearGradient id="Gradient_bez_nazwy_24" data-name="Gradient bez nazwy 24" x1="215.2" y1="634.5" x2="283" y2="634.5" gradientTransform="translate(0 -574)" gradientUnits="userSpaceOnUse">
      <stop offset="0" stop-color="#fff"/>
      <stop offset="0" stop-color="#909090"/>
      <stop offset="0" stop-color="#909090"/>
      <stop offset="0" stop-color="#909090"/>
      <stop offset="1" stop-color="#fff"/>
      <stop offset="1" stop-color="#d34f2a"/>
      <stop offset="1" stop-color="#d55733"/>
      <stop offset="1" stop-color="#fefaf9"/>
      <stop offset="1" stop-color="#fefbfa"/>
    </linearGradient>
  </defs>
  <!-- Generator: Adobe Illustrator 28.6.0, SVG Export Plug-In . SVG Version: 1.2.0 Build 709)  -->
  <g>
    <g id="Warstwa_1">
      <g id="Warstwa_1-2" data-name="Warstwa_1">
        <path class="cls-6" d="M327.9,44.5h-2.7v-1.9h7.7v1.9h-2.7v11.7h-2.3v-11.7h0Z"/>
        <path class="cls-7" d="M220.7,49.7c-1.2-.9-2.2-2.2-2.2-4v-.7c0-2.3,1.2-4,3.9-4s4,1.7,4,4v1h-1.8v-1c0-1.3-.5-2.3-2.1-2.3s-2.1.9-2.1,2.3v.4c0,1.3.6,2,1.6,2.7l2.4,1.7c1.3.9,2.2,2.1,2.2,3.7v.8c0,2.3-1.4,4-4.1,4s-4-1.7-4-4v-1.2h1.8v1.1c0,1.4.6,2.3,2.2,2.3s2.2-.9,2.2-2.3v-.3c0-1.3-.5-1.9-1.5-2.7l-2.4-1.7h0v.2Z"/>
        <path class="cls-7" d="M236.2,51.5h-5.9v2.9c0,1.3.6,2.2,2.1,2.2s2.1-.8,2.1-2.2v-1h1.8v.9c0,2.4-1.3,4-3.8,4s-3.9-1.6-3.9-4v-6.8c0-2.4,1.3-4,3.9-4s3.8,1.6,3.8,4v3.9h-.1ZM230.4,50h4.1v-2.4c0-1.3-.6-2.2-2.1-2.2s-2.1.8-2.1,2.2v2.4h.1Z"/>
        <path class="cls-7" d="M241.8,58.3c-2.2,0-3.3-1.3-3.3-3.4v-.7c0-1.7.9-2.8,2.7-3.5l3.3-1.1v-2.2c0-1.3-.6-2.1-2.1-2.1s-2,.7-2,2.1v.8h-1.8v-.8c0-2.4,1.2-3.8,3.8-3.8s3.8,1.5,3.8,3.8v10.8h-1.8v-1.5c-.3.8-1.1,1.7-2.7,1.7h.1ZM242.1,56.7c1.7,0,2.3-1,2.3-2.2v-3.2l-2.6.8c-1.2.4-1.7,1-1.7,2v.6c0,1.2.6,1.9,1.9,1.9h.1Z"/>
        <path class="cls-7" d="M253.9,45.8h-.9c-1.1,0-2,.9-2,2.4v10.1h-1.8v-14.3h1.7v1.8c.2-.8.9-1.9,2.5-1.9s.3,0,.5,0v2h0Z"/>
        <path class="cls-7" d="M261.1,54.5v-1h1.8v1c0,2.4-1.3,4-3.8,4s-3.8-1.6-3.8-4v-6.8c0-2.4,1.3-4,3.8-4s3.8,1.6,3.8,4v1.1h-1.8v-1.1c0-1.3-.5-2.2-2-2.2s-2,.9-2,2.2v6.8c0,1.3.6,2.2,2,2.2s2-.9,2-2.2Z"/>
        <path class="cls-7" d="M265.6,58.2v-18.1h1.8v5.3c.2-.5.9-1.5,2.6-1.5s3.1,1.4,3.1,3.6v10.8h-1.8v-10.5c0-1.4-.6-2.1-1.9-2.1s-2.1.7-2.1,2v10.6h-1.8,0Z"/>
        <rect class="cls-7" x="280.2" y="43.7" width="3.5" height="2.4"/>
        <path class="cls-6" d="M318.1,56.3v-13.6h2.3v13.6s-2.3,0-2.3,0Z"/>
        <path class="cls-5" d="M310,40.5h27.4"/>
        <path class="cls-5" d="M297.8,40.6h2"/>
        <path class="cls-5" d="M239.8,40.6c18.4,0,36.8,0,55.1,0"/>
        <path class="cls-7" d="M217.1,65.7l-4,3.8-24.8-19.3,24.8-19.3,4,3.8-20.1,15.4,20.1,15.6h0Z"/>
        <path class="cls-7" d="M360.7,49.6l-20.1-15.4,4-3.8,24.8,19.3-24.8,19.3-4-3.8,20.1-15.6h0Z"/>
        <rect class="cls-7" x="280.2" y="54.9" width="3.5" height="2.4"/>
        <path class="cls-7" d="M312,23.6l-22.5,49.8h-5.4l22.5-49.8s5.4,0,5.4,0Z"/>
        <path class="cls-3" d="M310.4,38.7h32.5"/>
        <path class="cls-2" d="M215.2,38.8c26.6-.2,52.9-.2,79.4,0"/>
        <path class="cls-4" d="M300.1,60.4h42.7"/>
        <path class="cls-1" d="M215.2,60.5h67.8"/>
      </g>
    </g>
  </g>
</svg>